<svg xmlns="http://www.w3.org/2000/svg" width="430.054" height="29.261" viewBox="0 0 430.054 29.261">
  <g id="Marca_DIREITORIO" transform="translate(-31.858 -27.447)">
    <g id="Grupo_36278" data-name="Grupo 36278">
      <path id="Caminho_60493" data-name="Caminho 60493" d="M208.652,28.226h10.771a20.33,20.33,0,0,1,6.681,1.017,14.112,14.112,0,0,1,4.947,2.852,12.191,12.191,0,0,1,3.071,4.368,14.307,14.307,0,0,1,1.057,5.565v.08a14.366,14.366,0,0,1-1.077,5.6,12.59,12.59,0,0,1-3.111,4.448,14.4,14.4,0,0,1-5.006,2.932,19.973,19.973,0,0,1-6.722,1.057H208.652Zm10.9,21.062a8.269,8.269,0,0,0,5.6-1.835,6.533,6.533,0,0,0,2.122-5.226v-.079a6.549,6.549,0,0,0-2.122-5.207,8.213,8.213,0,0,0-5.6-1.854h-3.163v14.2Z" fill="#fff"/>
      <path id="Caminho_60494" data-name="Caminho 60494" d="M239.328,28.226h7.778V56.149h-7.778Z" fill="#fff"/>
      <path id="Caminho_60495" data-name="Caminho 60495" d="M252.212,28.226h13.2a16.346,16.346,0,0,1,5.465.8,9.343,9.343,0,0,1,3.63,2.233,8.629,8.629,0,0,1,2.474,6.5v.08a8.785,8.785,0,0,1-1.556,5.346,9.847,9.847,0,0,1-4.188,3.231l6.661,9.733h-8.936l-5.624-8.457h-3.39v8.457h-7.739Zm12.844,13.4a4.672,4.672,0,0,0,3.072-.9,2.978,2.978,0,0,0,1.078-2.413v-.08a2.89,2.89,0,0,0-1.118-2.493,5.106,5.106,0,0,0-3.071-.818h-5.066v6.7Z" fill="#fff"/>
      <path id="Caminho_60496" data-name="Caminho 60496" d="M280.893,28.226h22.418v6.582h-14.8v4.228h13.4v6.1h-13.4v4.428h15v6.582H280.893Z" fill="#fff"/>
      <path id="Caminho_60497" data-name="Caminho 60497" d="M307.659,28.226h7.778V56.149h-7.778Z" fill="#fff"/>
      <path id="Caminho_60498" data-name="Caminho 60498" d="M327.364,35.007h-8.377V28.226H343.48v6.781H335.1V56.149h-7.739Z" fill="#fff"/>
      <path id="Caminho_60499" data-name="Caminho 60499" d="M360.912,56.708a15.5,15.5,0,0,1-5.984-1.138,14.713,14.713,0,0,1-4.747-3.091,14.276,14.276,0,0,1-3.132-4.587,14.036,14.036,0,0,1-1.136-5.625v-.08a14.222,14.222,0,0,1,4.308-10.271,15.032,15.032,0,0,1,4.786-3.112,16.315,16.315,0,0,1,11.968,0,14.742,14.742,0,0,1,4.747,3.092,14.288,14.288,0,0,1,3.131,4.587,14.033,14.033,0,0,1,1.137,5.625v.079a14.233,14.233,0,0,1-4.308,10.272,15.023,15.023,0,0,1-4.787,3.111A15.5,15.5,0,0,1,360.912,56.708Zm.059-6.981a6.989,6.989,0,0,0,2.92-.6,6.7,6.7,0,0,0,2.24-1.615,7.484,7.484,0,0,0,1.44-2.374,7.965,7.965,0,0,0,.52-2.872v-.08a7.973,7.973,0,0,0-.52-2.872,7.367,7.367,0,0,0-1.48-2.393,7.285,7.285,0,0,0-2.279-1.656,7.268,7.268,0,0,0-5.82-.02,6.95,6.95,0,0,0-3.681,3.989,8.227,8.227,0,0,0-.5,2.873v.079a7.949,7.949,0,0,0,.52,2.873,7.532,7.532,0,0,0,1.46,2.393,7.027,7.027,0,0,0,2.26,1.655A6.786,6.786,0,0,0,360.971,49.727Z" fill="#fff"/>
      <path id="Caminho_60500" data-name="Caminho 60500" d="M391.068,28.226h13.2a16.35,16.35,0,0,1,5.465.8,9.357,9.357,0,0,1,3.63,2.233,8.632,8.632,0,0,1,2.473,6.5v.08a8.784,8.784,0,0,1-1.555,5.346,9.85,9.85,0,0,1-4.189,3.231l6.661,9.733h-8.935L402.2,47.692h-3.391v8.457h-7.738Zm12.844,13.4a4.673,4.673,0,0,0,3.072-.9,2.978,2.978,0,0,0,1.077-2.413v-.08a2.889,2.889,0,0,0-1.117-2.493,5.11,5.11,0,0,0-3.072-.818h-5.066v6.7Z" fill="#fff"/>
      <path id="Caminho_60501" data-name="Caminho 60501" d="M419.909,28.226h7.778V56.149h-7.778Z" fill="#fff"/>
      <path id="Caminho_60502" data-name="Caminho 60502" d="M446.833,56.708a15.5,15.5,0,0,1-5.983-1.138,14.713,14.713,0,0,1-4.747-3.091,14.276,14.276,0,0,1-3.132-4.587,14.037,14.037,0,0,1-1.137-5.625v-.08a14.228,14.228,0,0,1,4.309-10.271,15.021,15.021,0,0,1,4.786-3.112,16.315,16.315,0,0,1,11.968,0,14.743,14.743,0,0,1,4.747,3.092,14.289,14.289,0,0,1,3.131,4.587,14.033,14.033,0,0,1,1.137,5.625v.079A14.233,14.233,0,0,1,457.6,52.459a15.034,15.034,0,0,1-4.787,3.111A15.5,15.5,0,0,1,446.833,56.708Zm.06-6.981a6.992,6.992,0,0,0,2.92-.6,6.7,6.7,0,0,0,2.24-1.615,7.5,7.5,0,0,0,1.44-2.374,7.965,7.965,0,0,0,.52-2.872v-.08a7.973,7.973,0,0,0-.52-2.872,7.292,7.292,0,0,0-3.759-4.049,7.268,7.268,0,0,0-5.82-.02,6.95,6.95,0,0,0-3.681,3.989,8.227,8.227,0,0,0-.5,2.873v.079a7.969,7.969,0,0,0,.519,2.873,7.552,7.552,0,0,0,1.461,2.393,7.026,7.026,0,0,0,2.26,1.655A6.786,6.786,0,0,0,446.893,49.727Z" fill="#fff"/>
    </g>
    <g id="Grupo_36282" data-name="Grupo 36282">
      <g id="Grupo_36280" data-name="Grupo 36280">
        <g id="Grupo_36279" data-name="Grupo 36279">
          <path id="Caminho_60503" data-name="Caminho 60503" d="M110.188,28.007h22.383V34.8H117.943v4.716h13.229v6.476H117.943v9.991h-7.755Z" fill="#fff"/>
          <path id="Caminho_60504" data-name="Caminho 60504" d="M150.357,56.545a16.867,16.867,0,0,1-6.056-1.06,14.426,14.426,0,0,1-4.816-2.977,13.744,13.744,0,0,1-3.2-4.577,14.484,14.484,0,0,1-1.159-5.855V42a14.473,14.473,0,0,1,4.256-10.332,14.209,14.209,0,0,1,4.761-3.1,15.948,15.948,0,0,1,6.011-1.119,17.253,17.253,0,0,1,6.415,1.079,17.582,17.582,0,0,1,4.936,3L156.952,37a12.534,12.534,0,0,0-3.1-1.958,9.17,9.17,0,0,0-3.657-.68,6.651,6.651,0,0,0-2.818.6,7.088,7.088,0,0,0-2.258,1.64,7.881,7.881,0,0,0-1.519,2.438,7.971,7.971,0,0,0-.56,3v.08a8.5,8.5,0,0,0,.562,3.117,7.03,7.03,0,0,0,1.584,2.459,7.435,7.435,0,0,0,2.406,1.6,7.853,7.853,0,0,0,3.068.579,8.024,8.024,0,0,0,4.491-1.159v-3.4h-5.516V39.638h12.871V52.23a20.418,20.418,0,0,1-5.276,3.077A18.09,18.09,0,0,1,150.357,56.545Z" fill="#fff"/>
          <path id="Caminho_60505" data-name="Caminho 60505" d="M164.586,28.007h8.673l6.355,17.707,6.355-17.707h8.514L183.1,55.985h-7.194Z" fill="#fff"/>
        </g>
      </g>
      <g id="Grupo_36281" data-name="Grupo 36281">
        <path id="Caminho_60506" data-name="Caminho 60506" d="M71.79,37.115l9.637-9.031h21.719L84.77,45.169Z" fill="#fff" fill-rule="evenodd"/>
        <path id="Caminho_60507" data-name="Caminho 60507" d="M31.858,28.083H54.2L78.513,56.019H56.172Z" fill="#fff" fill-rule="evenodd"/>
      </g>
    </g>
  </g>
</svg>
