<svg class="decision-tree" width="682" height="512" viewBox="0 0 682 512" role="img" aria-label="Árvore de decisão da questão 1"><style>
.decision-tree{font-family:Arial,Helvetica,sans-serif;}
.decision-tree-edge{fill:none;stroke:#003E7E;stroke-width:2.4;stroke-linecap:round;stroke-linejoin:round;}
.decision-tree-edge.excluded{opacity:.45;}
.decision-tree-edge-cut{stroke:#003E7E;stroke-width:2.2;stroke-linecap:round;}
.decision-tree-node{fill:white;stroke:#003E7E;stroke-width:2.4;}
.decision-tree-node.terminal{fill:#003E7E;stroke:#003E7E;}
.decision-tree-label{font-size:11px;font-weight:700;letter-spacing:0;}
.decision-tree-label-primary{fill:#003E7E;}
.decision-tree-label-secondary{fill:#058ED0;font-weight:600;}
.decision-tree-node-value{fill:#003E7E;font-weight:700;font-size:12px;letter-spacing:0;}
.decision-tree-node-value-sub{font-size:.7em;baseline-shift:sub;}
</style><path class="decision-tree-edge" d="M 361 84 L 389 24 L 650 24"></path><path class="decision-tree-edge" d="M 361 84 L 650 84"></path><path class="decision-tree-edge" d="M 361 84 L 389 144 L 650 144"></path><path class="decision-tree-edge excluded" d="M 55 246 L 83 84 L 337 84"></path><line class="decision-tree-edge-cut" x1="66.87867965644035" y1="160.05025253169416" x2="73.94974746830583" y2="167.12132034355963"></line><line class="decision-tree-edge-cut" x1="64.05025253169417" y1="162.87867965644037" x2="71.12132034355965" y2="169.94974746830584"></line><path class="decision-tree-edge" d="M 361 246 L 389 186 L 650 186"></path><path class="decision-tree-edge" d="M 361 246 L 650 246"></path><path class="decision-tree-edge" d="M 361 246 L 389 306 L 650 306"></path><path class="decision-tree-edge excluded" d="M 55 246 L 337 246"></path><line class="decision-tree-edge-cut" x1="78.05025253169417" y1="248.12132034355963" x2="85.12132034355965" y2="241.05025253169416"></line><line class="decision-tree-edge-cut" x1="80.87867965644035" y1="250.94974746830584" x2="87.94974746830583" y2="243.87867965644037"></line><path class="decision-tree-edge" d="M 361 408 L 389 348 L 650 348"></path><path class="decision-tree-edge" d="M 361 408 L 650 408"></path><path class="decision-tree-edge" d="M 361 408 L 389 468 L 650 468"></path><path class="decision-tree-edge" d="M 55 246 L 83 408 L 337 408"></path><text class="decision-tree-label" text-anchor="middle" x="519.5" y="18"><tspan x="519.5" dy="0" class="decision-tree-label-primary">Controle baixo</tspan></text><text class="decision-tree-label" text-anchor="middle" x="519.5" y="41"><tspan x="519.5" dy="0" class="decision-tree-label-secondary">30% | 140</tspan></text><text class="decision-tree-label" text-anchor="middle" x="519.5" y="78"><tspan x="519.5" dy="0" class="decision-tree-label-primary">Controle médio</tspan></text><text class="decision-tree-label" text-anchor="middle" x="519.5" y="101"><tspan x="519.5" dy="0" class="decision-tree-label-secondary">40% | 90</tspan></text><text class="decision-tree-label" text-anchor="middle" x="519.5" y="138"><tspan x="519.5" dy="0" class="decision-tree-label-primary">Controle alto</tspan></text><text class="decision-tree-label" text-anchor="middle" x="519.5" y="161"><tspan x="519.5" dy="0" class="decision-tree-label-secondary">30% | 40</tspan></text><text class="decision-tree-label" text-anchor="middle" x="210" y="78"><tspan x="210" dy="0" class="decision-tree-label-primary">Instrução mínima</tspan></text><text class="decision-tree-label" text-anchor="middle" x="519.5" y="180"><tspan x="519.5" dy="0" class="decision-tree-label-primary">Controle baixo</tspan></text><text class="decision-tree-label" text-anchor="middle" x="519.5" y="203"><tspan x="519.5" dy="0" class="decision-tree-label-secondary">30% | 70</tspan></text><text class="decision-tree-label" text-anchor="middle" x="519.5" y="240"><tspan x="519.5" dy="0" class="decision-tree-label-primary">Controle médio</tspan></text><text class="decision-tree-label" text-anchor="middle" x="519.5" y="263"><tspan x="519.5" dy="0" class="decision-tree-label-secondary">40% | 100</tspan></text><text class="decision-tree-label" text-anchor="middle" x="519.5" y="300"><tspan x="519.5" dy="0" class="decision-tree-label-primary">Controle alto</tspan></text><text class="decision-tree-label" text-anchor="middle" x="519.5" y="323"><tspan x="519.5" dy="0" class="decision-tree-label-secondary">30% | 90</tspan></text><text class="decision-tree-label" text-anchor="middle" x="210" y="240"><tspan x="210" dy="0" class="decision-tree-label-primary">Instrução intermediária</tspan></text><text class="decision-tree-label" text-anchor="middle" x="519.5" y="342"><tspan x="519.5" dy="0" class="decision-tree-label-primary">Controle baixo</tspan></text><text class="decision-tree-label" text-anchor="middle" x="519.5" y="365"><tspan x="519.5" dy="0" class="decision-tree-label-secondary">30% | 10</tspan></text><text class="decision-tree-label" text-anchor="middle" x="519.5" y="402"><tspan x="519.5" dy="0" class="decision-tree-label-primary">Controle médio</tspan></text><text class="decision-tree-label" text-anchor="middle" x="519.5" y="425"><tspan x="519.5" dy="0" class="decision-tree-label-secondary">40% | 100</tspan></text><text class="decision-tree-label" text-anchor="middle" x="519.5" y="462"><tspan x="519.5" dy="0" class="decision-tree-label-primary">Controle alto</tspan></text><text class="decision-tree-label" text-anchor="middle" x="519.5" y="485"><tspan x="519.5" dy="0" class="decision-tree-label-secondary">30% | 160</tspan></text><text class="decision-tree-label" text-anchor="middle" x="210" y="402"><tspan x="210" dy="0" class="decision-tree-label-primary">Instrução reforçada</tspan></text><rect class="decision-tree-node decision" x="33" y="235" width="22" height="22" rx="2" ry="2"></rect><circle class="decision-tree-node chance" cx="349" cy="84" r="12"></circle><circle class="decision-tree-node terminal" cx="654" cy="24" r="4"></circle><circle class="decision-tree-node terminal" cx="654" cy="84" r="4"></circle><circle class="decision-tree-node terminal" cx="654" cy="144" r="4"></circle><circle class="decision-tree-node chance" cx="349" cy="246" r="12"></circle><circle class="decision-tree-node terminal" cx="654" cy="186" r="4"></circle><circle class="decision-tree-node terminal" cx="654" cy="246" r="4"></circle><circle class="decision-tree-node terminal" cx="654" cy="306" r="4"></circle><circle class="decision-tree-node chance" cx="349" cy="408" r="12"></circle><circle class="decision-tree-node terminal" cx="654" cy="348" r="4"></circle><circle class="decision-tree-node terminal" cx="654" cy="408" r="4"></circle><circle class="decision-tree-node terminal" cx="654" cy="468" r="4"></circle><text class="decision-tree-node-value" text-anchor="middle" x="44" y="274">r</text><text class="decision-tree-node-value" text-anchor="end" x="336" y="111"><tspan>x</tspan><tspan class="decision-tree-node-value-sub" baseline-shift="sub">M</tspan><tspan> =</tspan></text><text class="decision-tree-node-value" text-anchor="middle" x="349" y="111">90</text><text class="decision-tree-node-value" text-anchor="end" x="336" y="273"><tspan>x</tspan><tspan class="decision-tree-node-value-sub" baseline-shift="sub">I</tspan><tspan> =</tspan></text><text class="decision-tree-node-value" text-anchor="middle" x="349" y="273">88</text><text class="decision-tree-node-value" text-anchor="end" x="336" y="435"><tspan>x</tspan><tspan class="decision-tree-node-value-sub" baseline-shift="sub">R</tspan><tspan> =</tspan></text><text class="decision-tree-node-value" text-anchor="middle" x="349" y="435">91</text></svg>